<svg version="1.1" id="Layer_1" xmlns="http://www.w3.org/2000/svg" xmlns:xlink="http://www.w3.org/1999/xlink" x="0px" y="0px" width="379.5px" height="92.5px" viewBox="0 0 379.5 92.5" enable-background="new 0 0 379.5 92.5" xml:space="preserve">
<g>
	<ellipse fill-rule="evenodd" clip-rule="evenodd" fill="#000000" cx="122.384" cy="26.28" rx="27.797" ry="26.279"></ellipse>
	<g id="ObtmnL_1_">
		<g>
			<path fill-rule="evenodd" clip-rule="evenodd" fill="#000000" d="M376.802,50.765c-20.297,0-39.508,0-60.106,0
				c0-16.195,0-32.082,0-48.584c3.451,0,6.937,0,10.422,0c3.335,0,6.669,0,10.539,0c2.979,8.746,5.931,17.41,8.882,26.073
				c0.348-0.001,0.697-0.003,1.047-0.003c2.541-8.555,5.082-17.111,7.74-26.06c7.648,0,13.871,0,21.328,0L376.802,50.765z"></path>
			<path fill-rule="evenodd" clip-rule="evenodd" fill="#000000" d="M18.02,15.116l-0.107,6.039c5.082,0,9.92,0,14.94,0
				c0,4.395,0,8.296,0,12.707c-4.746,0-15.107,0-15.107,0L17.59,50.584c-5.137,0.06-10.197,0.12-15.257,0.181
				c0-16.191,0-32.382,0-48.573c10.821,0,21.643,0,32.749,0c0,4.129,0,9.164,0,13.06L18.02,15.116z"></path>
			<path fill-rule="evenodd" clip-rule="evenodd" fill="#000000" d="M212.395,2.235c0,0,17.298-0.157,25.763,0.046
				c7.761,0.188,14.034,6.765,14.115,14.364c0.013,1.205-0.032,3.396-0.284,5.183c-1.573,4.069-3.022,6.999-7.973,8.793
				c3.224,7.12,8.175,12.922,11.623,19.88c-5.867,0-11.528,0-17.51,0c-3.197-5.727-6.413-11.486-10.117-18.121l0.116,18.169
				l-15.717,0.101L212.395,2.235z"></path>
		</g>
	</g>
</g>
<g id="axR3VL_2_">
	<g>
		<path fill-rule="evenodd" clip-rule="evenodd" fill="#000000" d="M152.277,84.046c-0.058,1.807-0.6,3.375-1.984,4.595
			c-1.573,1.387-5.11,1.672-7.016-0.703c-1.628-2.028-1.752-5.369-0.19-7.448c1.278-1.698,3.012-2.335,5.067-1.918
			c2.069,0.419,3.361,1.737,3.871,3.785C152.162,82.906,152.195,83.481,152.277,84.046z M144.001,83.996
			c0.075,0.479,0.112,0.967,0.231,1.434c0.346,1.354,1.415,2.314,2.607,2.387c1.434,0.087,2.61-0.623,3.095-1.961
			c0.542-1.497,0.414-2.965-0.478-4.307c-1.017-1.531-3.16-1.692-4.424-0.361C144.289,81.972,144.063,82.944,144.001,83.996z"></path>
		<path fill-rule="evenodd" clip-rule="evenodd" fill="#000000" d="M284.228,89.41c-0.606,0-1.228,0-1.871,0
			c0-3.561,0-7.104,0-10.687c0.552,0,1.079-0.021,1.604,0.016c0.138,0.01,0.298,0.188,0.386,0.327
			c1.396,2.213,2.781,4.434,4.17,6.65c0.074,0.122,0.154,0.238,0.32,0.343c-0.076-2.425-0.152-4.85-0.229-7.305
			c0.659,0,1.282,0,1.938,0c0,3.539,0,7.082,0,10.68c-0.521,0-1.046,0.021-1.567-0.016c-0.125-0.009-0.267-0.183-0.35-0.313
			c-1.384-2.205-2.761-4.415-4.14-6.622c-0.073-0.119-0.15-0.234-0.261-0.406C284.228,84.561,284.228,86.974,284.228,89.41z"></path>
		<path fill-rule="evenodd" clip-rule="evenodd" fill="#000000" d="M58.32,89.435c-0.752,0-1.425,0.015-2.095-0.012
			c-0.126-0.006-0.294-0.149-0.362-0.274c-0.612-1.116-1.212-2.237-1.8-3.366c-0.122-0.235-0.264-0.33-0.53-0.317
			c-0.454,0.023-0.909,0.007-1.398,0.007c0,1.325,0,2.609,0,3.929c-0.668,0-1.303,0-1.97,0c0-3.537,0-7.079,0-10.652
			c0.133-0.009,0.258-0.025,0.383-0.022c1.417,0.016,2.835,0.01,4.25,0.06c2.96,0.103,3.825,2.983,2.873,4.9
			c-0.347,0.699-0.967,1.107-1.709,1.421C56.739,86.535,57.509,87.948,58.32,89.435z M52.143,83.865
			c0.974-0.088,1.927-0.106,2.854-0.275c0.672-0.126,0.989-0.699,0.994-1.419c0.005-0.732-0.335-1.307-0.97-1.505
			c-0.94-0.294-1.909-0.159-2.877-0.192C52.143,81.613,52.143,82.679,52.143,83.865z"></path>
		<path fill-rule="evenodd" clip-rule="evenodd" fill="#000000" d="M198.459,80.658c-0.52,0.39-1.045,0.784-1.59,1.193
			c-0.234-0.263-0.445-0.526-0.686-0.764c-0.891-0.87-2.308-1.073-3.418-0.508c-0.442,0.227-0.728,0.552-0.69,1.077
			c0.033,0.485,0.352,0.752,0.774,0.863c0.896,0.237,1.807,0.412,2.699,0.653c0.508,0.135,1.009,0.314,1.485,0.534
			c1.035,0.479,1.536,1.313,1.555,2.458c0.017,1.181-0.413,2.125-1.433,2.748c-1.211,0.737-2.55,0.877-3.93,0.74
			c-1.26-0.122-2.389-0.559-3.285-1.487c-0.205-0.215-0.375-0.464-0.596-0.735c0.572-0.404,1.114-0.788,1.748-1.237
			c0.047,0.086,0.082,0.183,0.143,0.259c0.953,1.175,2.651,1.703,4.1,1.265c0.199-0.06,0.397-0.16,0.569-0.281
			c0.394-0.279,0.586-0.672,0.503-1.154c-0.082-0.468-0.403-0.767-0.842-0.883c-0.938-0.249-1.889-0.448-2.824-0.691
			c-0.453-0.119-0.915-0.249-1.333-0.454c-1.991-0.979-1.769-3.731-0.399-4.825c1.775-1.42,5.586-1.512,7.42,1.133
			C198.444,80.581,198.445,80.613,198.459,80.658z"></path>
		<path fill-rule="evenodd" clip-rule="evenodd" fill="#000000" d="M104.746,81.77c-0.659,0.177-1.302,0.35-1.948,0.523
			c-0.027-0.033-0.056-0.052-0.061-0.076c-0.208-0.94-0.713-1.641-1.692-1.844c-0.982-0.202-1.845,0.044-2.588,0.778
			c-1.286,1.271-1.279,4.595,0.075,5.86c1.231,1.152,3.023,1.031,3.997-0.347c0.211-0.301,0.366-0.642,0.572-1.006
			c0.59,0.248,1.199,0.504,1.803,0.757c-0.547,1.865-2.347,3.237-4.257,3.278c-2.985,0.064-4.998-1.747-5.278-4.75
			c-0.143-1.529-0.015-3.005,0.857-4.327c1.482-2.248,4.393-2.692,6.47-1.623C103.794,79.561,104.404,80.563,104.746,81.77z"></path>
		<path fill-rule="evenodd" clip-rule="evenodd" fill="#000000" d="M3.119,89.435c0.319-0.95,0.624-1.853,0.928-2.757
			c0.853-2.53,1.712-5.061,2.554-7.596c0.092-0.28,0.214-0.38,0.511-0.365C7.64,78.742,8.17,78.733,8.7,78.719
			c0.219-0.006,0.333,0.063,0.405,0.275c1.166,3.435,2.338,6.867,3.507,10.302c0.009,0.025,0.001,0.055,0.001,0.11
			c-0.691,0-1.382,0-2.109,0c-0.171-0.57-0.358-1.153-0.517-1.744C9.92,87.41,9.799,87.325,9.54,87.327
			c-1.103,0.013-2.205,0.015-3.307,0c-0.266-0.003-0.379,0.092-0.445,0.338c-0.135,0.512-0.285,1.018-0.454,1.52
			c-0.035,0.103-0.178,0.236-0.274,0.24C4.432,89.445,3.805,89.435,3.119,89.435z M6.441,85.536c0.996,0,1.924,0,2.896,0
			c-0.476-1.592-0.935-3.13-1.395-4.67c-0.031,0.001-0.061,0.002-0.092,0.003C7.383,82.418,6.916,83.966,6.441,85.536z"></path>
		<path fill-rule="evenodd" clip-rule="evenodd" fill="#000000" d="M244.788,89.423c-0.702,0-1.388,0-2.095,0
			c-0.177-0.595-0.361-1.18-0.523-1.772c-0.062-0.229-0.165-0.324-0.414-0.322c-1.116,0.012-2.233,0.015-3.35-0.002
			c-0.279-0.004-0.371,0.12-0.436,0.351c-0.138,0.496-0.274,0.992-0.447,1.477c-0.043,0.119-0.215,0.264-0.334,0.27
			c-0.6,0.026-1.2,0.012-1.85,0.012c0.033-0.143,0.052-0.261,0.089-0.372c1.116-3.318,2.238-6.632,3.346-9.951
			c0.096-0.287,0.214-0.415,0.534-0.396c0.528,0.029,1.06-0.008,1.589,0.019c0.13,0.007,0.33,0.125,0.368,0.235
			c1.191,3.456,2.365,6.919,3.541,10.38C244.811,89.36,244.801,89.377,244.788,89.423z M241.531,85.562
			c-0.481-1.608-0.944-3.155-1.406-4.701c-0.031,0.003-0.062,0.006-0.092,0.011c-0.467,1.553-0.936,3.107-1.413,4.69
			C239.602,85.562,240.527,85.562,241.531,85.562z"></path>
		<path fill-rule="evenodd" clip-rule="evenodd" fill="#000000" d="M331.148,80.568c-1.007,0-1.931,0-2.882,0
			c0-0.622,0-1.202,0-1.812c2.588,0,5.169,0,7.782,0c0,0.577,0,1.156,0,1.785c-0.945,0-1.896,0-2.895,0c0,2.975,0,5.9,0,8.859
			c-0.682,0-1.318,0-2.006,0C331.148,86.488,331.148,83.563,331.148,80.568z"></path>
		<path fill-rule="evenodd" clip-rule="evenodd" fill="#000000" d="M374.718,89.413c0-3.549,0-7.079,0-10.648
			c0.631,0,1.262,0,1.92,0c0,3.549,0,7.088,0,10.648C375.988,89.413,375.365,89.413,374.718,89.413z"></path>
	</g>
</g>
</svg>